<?xml version="1.0" standalone="no"?>
<!DOCTYPE svg PUBLIC "-//W3C//DTD SVG 20010904//EN"
 "http://www.w3.org/TR/2001/REC-SVG-20010904/DTD/svg10.dtd">
<svg version="1.0" xmlns="http://www.w3.org/2000/svg"
 width="3000.000000pt" height="3000.000000pt" viewBox="0 0 3000.000000 3000.000000"
 preserveAspectRatio="xMidYMid meet">
<metadata>
Created by potrace 1.11, written by Peter Selinger 2001-2013
</metadata>
<g transform="translate(0.000000,3000.000000) scale(0.100000,-0.100000)"
fill="#000000" stroke="none">
<path d="M15355 22994 c-500 -40 -910 -154 -1346 -375 -342 -173 -603 -361
-877 -632 -298 -294 -493 -567 -682 -952 -184 -374 -284 -708 -337 -1120 -24
-191 -24 -610 1 -815 49 -410 144 -737 321 -1106 314 -656 801 -1177 1436
-1537 64 -37 121 -68 127 -69 5 -2 189 148 409 332 l399 335 -101 37 c-796
299 -1404 981 -1604 1800 -44 182 -62 312 -68 513 -19 611 150 1148 518 1643
93 125 366 398 491 491 466 346 985 521 1548 521 518 0 991 -144 1425 -435
573 -383 971 -984 1095 -1652 l23 -122 62 52 c35 29 216 180 403 337 l339 285
-10 30 c-5 17 -14 35 -18 41 -5 6 -6 14 -2 17 3 4 1 7 -6 7 -7 0 -10 4 -7 9 9
13 -85 243 -169 416 -412 846 -1162 1494 -2070 1788 -330 107 -639 157 -1010
162 -132 1 -262 1 -290 -1z"/>
<path d="M4550 19505 l0 -3335 1065 0 1065 0 2 1196 3 1195 400 -583 c869
-1269 958 -1398 965 -1398 4 0 311 446 681 991 l674 990 3 -1195 2 -1196 1065
0 1065 0 0 3335 0 3335 -882 -2 -882 -3 -858 -1270 c-472 -698 -863 -1270
-868 -1270 -5 0 -398 572 -873 1270 l-863 1270 -882 3 -882 2 0 -3335z m2376
895 c612 -899 1118 -1635 1124 -1635 6 0 510 736 1119 1635 l1109 1635 131 3
131 3 0 -2536 0 -2535 -130 0 -130 0 -2 2292 -3 2292 -1109 -1622 c-611 -892
-1113 -1622 -1116 -1622 -3 0 -508 730 -1121 1622 l-1114 1622 -3 -2292 -2
-2292 -130 0 -130 0 0 2535 0 2536 131 -3 132 -3 1113 -1635z"/>
<path d="M19640 21979 c0 -808 1 -861 17 -848 9 8 233 195 497 417 l481 403 3
45 3 44 50 0 50 0 437 367 c240 202 454 382 475 400 l37 33 -1025 0 -1025 0 0
-861z"/>
<path d="M21683 22766 c1 -6 -5 -9 -13 -8 -8 2 -11 0 -7 -4 12 -13 37 -13 34
-1 -1 6 3 11 10 12 23 0 22 11 -2 11 -13 0 -23 -5 -22 -10z"/>
<path d="M21633 22713 c4 -3 1 -13 -6 -22 -11 -14 -10 -14 5 -2 16 12 16 31 1
31 -4 0 -3 -3 0 -7z"/>
<path d="M21535 22649 c-3 -4 2 -6 10 -5 21 3 28 13 10 13 -9 0 -18 -4 -20 -8z"/>
<path d="M21523 22615 c0 -8 4 -12 9 -9 5 3 6 10 3 15 -9 13 -12 11 -12 -6z"/>
<path d="M21466 22572 c-3 -5 1 -9 9 -9 8 0 12 4 9 9 -3 4 -7 8 -9 8 -2 0 -6
-4 -9 -8z"/>
<path d="M21385 22529 c-3 -4 2 -6 10 -5 21 3 28 13 10 13 -9 0 -18 -4 -20 -8z"/>
<path d="M21343 22475 c0 -6 6 -12 12 -12 6 0 12 6 12 12 0 6 -6 12 -12 12 -6
0 -12 -6 -12 -12z"/>
<path d="M21319 22433 c-13 -16 -12 -17 4 -4 16 13 21 21 13 21 -2 0 -10 -8
-17 -17z"/>
<path d="M21253 22393 c4 -3 1 -13 -6 -22 -11 -14 -10 -14 5 -2 16 12 16 31 1
31 -4 0 -3 -3 0 -7z"/>
<path d="M21164 22332 c4 -3 14 -7 22 -8 9 -1 13 0 10 4 -4 3 -14 7 -22 8 -9
1 -13 0 -10 -4z"/>
<path d="M21133 22293 c4 -3 1 -13 -6 -22 -11 -14 -10 -14 5 -2 16 12 16 31 1
31 -4 0 -3 -3 0 -7z"/>
<path d="M21035 22229 c-3 -4 2 -6 10 -5 21 3 28 13 10 13 -9 0 -18 -4 -20 -8z"/>
<path d="M21023 22195 c0 -8 4 -12 9 -9 5 3 6 10 3 15 -9 13 -12 11 -12 -6z"/>
<path d="M20966 22152 c-3 -5 1 -9 9 -9 8 0 12 4 9 9 -3 4 -7 8 -9 8 -2 0 -6
-4 -9 -8z"/>
<path d="M20885 22109 c-3 -4 2 -6 10 -5 21 3 28 13 10 13 -9 0 -18 -4 -20 -8z"/>
<path d="M20843 22055 c0 -6 6 -12 12 -12 6 0 12 6 12 12 0 6 -6 12 -12 12 -6
0 -12 -6 -12 -12z"/>
<path d="M15435 21794 c-366 -37 -573 -92 -850 -228 -241 -119 -415 -243 -608
-434 -195 -192 -322 -367 -448 -618 -164 -326 -233 -627 -233 -1014 0 -284 29
-471 110 -720 76 -232 222 -502 380 -703 146 -185 416 -423 615 -542 204 -121
477 -235 639 -267 12 -2 616 497 1155 954 12 10 -19 2 -75 -21 -197 -79 -360
-106 -590 -98 -273 10 -480 76 -705 224 -225 148 -382 329 -501 577 -91 191
-134 380 -134 596 0 221 43 409 139 605 78 159 160 271 289 397 270 262 602
398 972 398 269 0 515 -71 749 -217 316 -197 545 -528 628 -905 26 -119 25
-438 -1 -558 -36 -168 -109 -345 -195 -477 -22 -35 -38 -63 -36 -63 3 0 261
215 573 477 l567 477 -1 80 c-1 45 -11 133 -23 196 -64 359 -209 684 -444 995
-73 96 -294 320 -394 399 -326 256 -725 425 -1123 476 -91 11 -389 21 -455 14z"/>
<path d="M14736 16929 c4 -8 30 -6 38 2 3 3 -5 5 -19 5 -13 0 -22 -3 -19 -7z"/>
<path d="M14676 16892 c-3 -5 1 -9 9 -9 8 0 12 4 9 9 -3 4 -7 8 -9 8 -2 0 -6
-4 -9 -8z"/>
<path d="M14575 16809 c-3 -4 2 -6 10 -5 21 3 28 13 10 13 -9 0 -18 -4 -20 -8z"/>
<path d="M14536 16758 c3 -5 10 -6 15 -3 13 9 11 12 -6 12 -8 0 -12 -4 -9 -9z"/>
<path d="M14513 16747 c0 -8 6 -14 14 -14 9 0 10 4 2 14 -6 7 -12 13 -14 13
-1 0 -2 -6 -2 -13z"/>
<path d="M14455 16709 c-3 -4 2 -6 10 -5 21 3 28 13 10 13 -9 0 -18 -4 -20 -8z"/>
<path d="M14413 16655 c0 -6 6 -12 12 -12 6 0 12 6 12 12 0 6 -6 12 -12 12 -6
0 -12 -6 -12 -12z"/>
<path d="M14356 16609 c4 -8 30 -6 38 2 3 3 -5 5 -19 5 -13 0 -22 -3 -19 -7z"/>
<path d="M14296 16572 c-3 -5 1 -9 9 -9 8 0 12 4 9 9 -3 4 -7 8 -9 8 -2 0 -6
-4 -9 -8z"/>
<path d="M14283 16535 c0 -8 4 -12 9 -9 5 3 6 10 3 15 -9 13 -12 11 -12 -6z"/>
<path d="M14215 16500 c-3 -5 -5 -10 -3 -11 33 -8 38 -7 27 7 -14 17 -16 17
-24 4z"/>
<path d="M14176 16458 c3 -5 10 -6 15 -3 13 9 11 12 -6 12 -8 0 -12 -4 -9 -9z"/>
<path d="M14125 16450 c-4 -6 -3 -10 2 -9 4 1 10 0 13 -1 16 -6 41 -7 35 -2
-4 4 -10 7 -13 7 -4 0 -12 4 -19 8 -6 4 -15 3 -18 -3z"/>
<path d="M14074 16408 c-4 -7 -4 -10 1 -6 4 4 14 3 21 -3 9 -7 14 -6 20 3 4 7
4 10 -1 6 -4 -4 -14 -3 -21 3 -9 7 -14 6 -20 -3z"/>
<path d="M7555 13989 c-1340 -111 -2399 -840 -2919 -2010 -187 -422 -278 -849
-293 -1374 -21 -800 178 -1522 587 -2125 539 -793 1422 -1315 2445 -1444 408
-52 910 -44 1295 20 218 36 578 136 849 235 269 98 688 328 823 450 l37 34
-495 870 c-272 479 -508 894 -525 923 l-30 53 -67 -62 c-137 -126 -365 -258
-582 -337 -252 -92 -478 -128 -740 -119 -188 7 -298 26 -451 77 -790 262
-1188 1087 -888 1838 124 312 368 571 684 729 118 60 221 95 359 125 85 19
133 22 306 22 282 0 399 -22 696 -129 182 -66 258 -105 431 -221 151 -101 154
-102 167 -81 8 12 233 409 501 882 268 473 498 879 511 901 28 49 31 46 -91
121 -513 318 -1166 539 -1795 608 -172 19 -658 28 -815 14z m773 -954 c253
-37 486 -97 684 -176 57 -23 113 -45 125 -50 l23 -8 -28 -48 c-16 -26 -47 -80
-70 -120 l-42 -71 -72 35 c-156 76 -421 149 -673 185 -138 20 -580 16 -730 -5
-266 -39 -488 -107 -720 -222 -238 -117 -398 -230 -570 -402 -176 -176 -298
-348 -410 -578 -115 -237 -183 -457 -222 -720 -22 -150 -24 -533 -5 -675 120
-853 597 -1487 1350 -1794 199 -82 386 -131 613 -163 156 -21 589 -25 724 -5
279 40 601 145 760 247 l54 34 43 -72 c23 -40 54 -93 69 -119 l28 -48 -42 -24
c-147 -87 -337 -157 -582 -216 -257 -63 -362 -74 -665 -74 -222 0 -290 3 -415
22 -601 88 -1100 328 -1491 717 -387 385 -608 827 -695 1395 -30 194 -33 609
-6 795 70 473 248 884 543 1250 89 111 290 309 404 397 388 300 871 484 1400
532 97 9 519 -4 618 -19z"/>
<path d="M19085 13993 c-483 -40 -886 -166 -1210 -379 -263 -173 -454 -386
-590 -659 -160 -321 -223 -696 -184 -1091 24 -244 77 -425 190 -654 132 -267
269 -451 518 -701 149 -149 235 -220 791 -659 73 -57 177 -147 231 -198 80
-76 106 -108 135 -168 35 -69 36 -77 32 -151 -10 -165 -99 -259 -286 -298
-124 -27 -441 -18 -747 21 -149 18 -579 105 -737 148 l-118 33 0 -998 0 -998
38 -10 c447 -120 966 -198 1467 -222 572 -27 1052 29 1423 168 601 224 996
615 1181 1171 80 237 115 469 115 757 0 374 -56 624 -214 953 -93 192 -164
310 -288 474 -170 227 -363 416 -772 758 -452 377 -510 437 -510 532 0 111
109 190 300 218 141 21 542 2 758 -35 l32 -6 0 936 c0 553 -4 935 -9 935 -5 0
-87 11 -183 25 -220 32 -660 81 -848 95 -134 9 -421 11 -515 3z m548 -950
l177 -17 0 -129 0 -130 -82 6 c-46 3 -146 11 -223 17 -340 29 -662 -21 -846
-130 -83 -49 -185 -157 -227 -242 -74 -147 -100 -361 -64 -524 12 -51 35 -125
52 -165 39 -92 153 -265 258 -389 106 -126 417 -431 622 -610 450 -392 692
-656 858 -937 76 -126 115 -216 149 -340 26 -91 28 -111 28 -288 0 -148 -4
-209 -19 -275 -81 -372 -318 -652 -687 -811 -144 -63 -325 -106 -537 -129
-233 -26 -663 2 -1038 68 l-99 17 -3 134 -3 133 26 -6 c44 -11 393 -64 505
-77 164 -19 574 -16 695 5 238 40 434 117 579 227 269 204 386 592 291 964
-77 305 -327 612 -945 1160 -677 601 -946 960 -1001 1335 -17 120 -6 309 25
433 62 243 186 402 420 535 273 156 625 210 1089 165z"/>
<path d="M12855 13828 c-3 -7 -571 -1507 -1264 -3333 l-1259 -3320 1046 -3
c575 -1 1047 0 1050 3 2 2 53 136 112 297 l108 293 1012 0 1013 0 107 -293
c60 -162 110 -295 112 -298 3 -2 475 -3 1050 -2 l1045 3 -203 535 c-112 294
-680 1793 -1263 3330 l-1059 2795 -801 3 c-636 2 -803 0 -806 -10z m1010 -830
c9 -24 441 -1157 960 -2518 519 -1361 946 -2483 950 -2493 7 -16 -2 -17 -135
-15 l-143 3 -59 155 c-32 85 -75 197 -94 248 l-36 92 -1650 -2 -1650 -3 -92
-245 -93 -245 -141 -3 -142 -3 29 78 c16 43 347 913 736 1933 389 1020 797
2091 907 2380 110 289 213 560 230 603 l29 77 189 0 188 0 17 -42z"/>
<path d="M13235 11687 c-231 -606 -580 -1523 -776 -2037 l-357 -935 779 -3
c429 -1 1129 -1 1558 0 l778 3 -478 1255 c-263 690 -613 1607 -776 2037 -164
431 -300 783 -303 783 -3 0 -194 -496 -425 -1103z m652 -1865 l222 -577 -225
-3 c-123 -1 -325 -1 -448 0 l-225 3 222 577 c122 318 224 578 227 578 3 0 105
-260 227 -578z"/>
<path d="M20990 12965 l0 -875 615 0 615 0 0 -2460 0 -2460 1100 0 1100 0 0
2460 0 2460 615 0 615 0 0 875 0 875 -2330 0 -2330 0 0 -875z m3890 -45 l0
-120 -715 0 -715 0 0 -2415 0 -2415 -130 0 -130 0 0 2415 0 2415 -715 0 -715
0 0 120 0 120 1560 0 1560 0 0 -120z"/>
</g>
</svg>
